# xmcd
#
# Track frame offsets: 
#        150
#        14301
#        28323
#        44665
#        55974
#        72160
#        87253
#        100082
#        116609
#        133415
#        149941
#        164251
#        179833
#        193011
#        207535
#        223530
#        236216
#        248973
#
# Disc length: 3517 seconds
#
# Revision: 0
# Processed by: cddbd v1.5.2PL0 Copyright (c) Steve Scherf et al.
# Submitted via: ExactAudioCopyFreeDBPlugin 1.0
#
DISCID=270dbb12
DTITLE=Lartiste - Quartier Latin Vol. 1
DYEAR=2019
DGENRE=No, thanks.
TTITLE0=I Don't Care
TTITLE1=Lartiste feat. Mizi - Latino
TTITLE2=Lartiste feat. Karol G - Peligrosa
TTITLE3=Lartiste feat. Sofiane - Code Illimité
TTITLE4=Social
TTITLE5=Lartiste feat. Koba La D - Piwi
TTITLE6=Le Secret
TTITLE7=Lartiste feat. Heuss L'Enfoiré - Tikka
TTITLE8=Lartiste feat. Hamidu Diallo - Bondy Nord
TTITLE9=El Dilema
TTITLE10=Lartiste feat. Eva - Matrixé
TTITLE11=Sarcelles
TTITLE12=Lartiste feat. Mr Eazi - La Belle Française
TTITLE13=Lartiste feat. Landy - Charme
TTITLE14=Lartiste feat. Aymane Serhani - Anania
TTITLE15=Faut Pas Rêver
TTITLE16=Lartiste feat. 7Ari - 7arraga
TTITLE17=Miel
EXTD=
EXTT0=
EXTT1=
EXTT2=
EXTT3=
EXTT4=
EXTT5=
EXTT6=
EXTT7=
EXTT8=
EXTT9=
EXTT10=
EXTT11=
EXTT12=
EXTT13=
EXTT14=
EXTT15=
EXTT16=
EXTT17=
PLAYORDER=
